<svg xmlns="http://www.w3.org/2000/svg" viewBox="0 0 100 400" fill="#d2b48c">
  <!-- Blade -->
  <path d="M10,120 Q0,130 0,150 L0,390 Q0,400 10,400 L90,400 Q100,400 100,390 L100,150 Q100,130 90,120 L55,120 L55,100 L45,100 L45,120 Z" />
  <!-- Splice -->
  <path d="M45,100 L45,150 L55,150 L55,100 Z" fill="#b89c74" />
  <path d="M45,120 L55,120 L52,150 L48,150 Z" fill="#a08866" />
  <!-- Handle -->
  <rect x="45" y="0" width="10" height="100" rx="5" fill="#5a4d41" />
  <!-- Grip Rings -->
  <rect x="43" y="10" width="14" height="4" rx="2" fill="#786452" />
  <rect x="43" y="20" width="14" height="4" rx="2" fill="#786452" />
  <rect x="43" y="30" width="14" height="4" rx="2" fill="#786452" />
  <rect x="43" y="40" width="14" height="4" rx="2" fill="#786452" />
  <rect x="43" y="50" width="14" height="4" rx="2" fill="#786452" />
  <rect x="43" y="60" width="14" height="4" rx="2" fill="#786452" />
  <rect x="43" y="70" width="14" height="4" rx="2" fill="#786452" />
</svg>
